<mxfile host="app.diagrams.net" modified="2021-01-20T18:11:01.105Z" agent="5.0 (Windows NT 10.0; Win64; x64) AppleWebKit/537.36 (KHTML, like Gecko) Chrome/87.0.4280.141 Safari/537.36" etag="r7Y3gsXsYWljNR-bwRjF" version="14.2.5" type="github">
  <diagram id="kgpKYQtTHZ0yAKxKKP6v" name="Page-1">
    <mxGraphModel dx="1885" dy="1853" grid="1" gridSize="10" guides="1" tooltips="1" connect="1" arrows="1" fold="1" page="1" pageScale="1" pageWidth="850" pageHeight="1100" math="0" shadow="0">
      <root>
        <mxCell id="0" />
        <mxCell id="1" parent="0" />
        <mxCell id="AxKgCEDZifXpMPb4GJsO-2" value="" style="strokeWidth=2;html=1;shape=mxgraph.flowchart.start_2;whiteSpace=wrap;" vertex="1" parent="1">
          <mxGeometry x="320" y="330" width="250" height="220" as="geometry" />
        </mxCell>
        <mxCell id="AxKgCEDZifXpMPb4GJsO-1" value="" style="strokeWidth=2;html=1;shape=mxgraph.flowchart.start_2;whiteSpace=wrap;" vertex="1" parent="1">
          <mxGeometry x="395" y="390" width="100" height="100" as="geometry" />
        </mxCell>
        <mxCell id="AxKgCEDZifXpMPb4GJsO-9" value="App and domain&lt;br&gt;Logic" style="text;html=1;align=center;verticalAlign=middle;resizable=0;points=[];autosize=1;" vertex="1" parent="1">
          <mxGeometry x="395" y="425" width="100" height="30" as="geometry" />
        </mxCell>
        <object placeholders="1" c4Name="Vizcom API" c4Type="Software System" c4Description="generate, sketch 2 render&#xa;" label="&lt;b&gt;%c4Name%&lt;/b&gt;&lt;div&gt;[%c4Type%]&lt;/div&gt;&lt;br&gt;&lt;div&gt;%c4Description%&lt;/div&gt;" id="AxKgCEDZifXpMPb4GJsO-11">
          <mxCell style="rounded=1;whiteSpace=wrap;html=1;labelBackgroundColor=none;fillColor=#1168BD;fontColor=#ffffff;align=center;arcSize=10;strokeColor=#1168BD;metaEdit=1;metaData={&quot;c4Type&quot;:{&quot;editable&quot;:false}};points=[[0.25,0,0],[0.5,0,0],[0.75,0,0],[1,0.25,0],[1,0.5,0],[1,0.75,0],[0.75,1,0],[0.5,1,0],[0.25,1,0],[0,0.75,0],[0,0.5,0],[0,0.25,0]];" vertex="1" parent="1">
            <mxGeometry x="220" y="590" width="150" height="100" as="geometry" />
          </mxCell>
        </object>
        <mxCell id="AxKgCEDZifXpMPb4GJsO-20" value="Firebase Auth&lt;br&gt;Service" style="ellipse;shape=cloud;whiteSpace=wrap;html=1;" vertex="1" parent="1">
          <mxGeometry x="690" y="410" width="120" height="80" as="geometry" />
        </mxCell>
        <mxCell id="AxKgCEDZifXpMPb4GJsO-21" value="" style="group" vertex="1" connectable="0" parent="1">
          <mxGeometry x="560" y="230" width="100" height="60" as="geometry" />
        </mxCell>
        <mxCell id="AxKgCEDZifXpMPb4GJsO-4" value="" style="strokeWidth=2;html=1;shape=mxgraph.flowchart.stored_data;whiteSpace=wrap;" vertex="1" parent="AxKgCEDZifXpMPb4GJsO-21">
          <mxGeometry width="100" height="60" as="geometry" />
        </mxCell>
        <mxCell id="AxKgCEDZifXpMPb4GJsO-5" value="Redux Store" style="text;html=1;align=center;verticalAlign=middle;resizable=0;points=[];autosize=1;" vertex="1" parent="AxKgCEDZifXpMPb4GJsO-21">
          <mxGeometry x="10" y="20" width="80" height="20" as="geometry" />
        </mxCell>
        <mxCell id="AxKgCEDZifXpMPb4GJsO-22" value="" style="group" vertex="1" connectable="0" parent="1">
          <mxGeometry x="510" y="610" width="95" height="90" as="geometry" />
        </mxCell>
        <mxCell id="AxKgCEDZifXpMPb4GJsO-3" value="" style="strokeWidth=2;html=1;shape=mxgraph.flowchart.database;whiteSpace=wrap;" vertex="1" parent="AxKgCEDZifXpMPb4GJsO-22">
          <mxGeometry width="90" height="90" as="geometry" />
        </mxCell>
        <mxCell id="AxKgCEDZifXpMPb4GJsO-6" value="database&lt;br&gt;" style="text;html=1;align=center;verticalAlign=middle;resizable=0;points=[];autosize=1;container=1;" vertex="1" collapsed="1" parent="AxKgCEDZifXpMPb4GJsO-22">
          <mxGeometry x="5" y="35" width="80" height="20" as="geometry">
            <mxRectangle x="15" y="35" width="60" height="20" as="alternateBounds" />
          </mxGeometry>
        </mxCell>
        <mxCell id="AxKgCEDZifXpMPb4GJsO-23" value="Google Cloud&lt;br&gt;storage" style="ellipse;shape=cloud;whiteSpace=wrap;html=1;" vertex="1" parent="1">
          <mxGeometry x="670" y="540" width="120" height="80" as="geometry" />
        </mxCell>
        <mxCell id="AxKgCEDZifXpMPb4GJsO-28" value="" style="shape=singleArrow;whiteSpace=wrap;html=1;direction=south;rotation=45;" vertex="1" parent="1">
          <mxGeometry x="520" y="270" width="10" height="70" as="geometry" />
        </mxCell>
        <mxCell id="AxKgCEDZifXpMPb4GJsO-29" value="" style="shape=singleArrow;whiteSpace=wrap;html=1;direction=south;rotation=-135;" vertex="1" parent="1">
          <mxGeometry x="552.5" y="290" width="10" height="70" as="geometry" />
        </mxCell>
        <mxCell id="AxKgCEDZifXpMPb4GJsO-30" value="Action, Reducer, payload" style="text;html=1;align=center;verticalAlign=middle;resizable=0;points=[];autosize=1;rotation=0;" vertex="1" parent="1">
          <mxGeometry x="552.5" y="330" width="150" height="20" as="geometry" />
        </mxCell>
        <mxCell id="AxKgCEDZifXpMPb4GJsO-31" value="update watchers&amp;nbsp;" style="text;html=1;align=center;verticalAlign=middle;resizable=0;points=[];autosize=1;" vertex="1" parent="1">
          <mxGeometry x="410" y="280" width="110" height="20" as="geometry" />
        </mxCell>
      </root>
    </mxGraphModel>
  </diagram>
</mxfile>
